<svg width="390" height="151" viewBox="0 0 390 151" fill="none" xmlns="http://www.w3.org/2000/svg">
<path d="M7.60248 145L0 151V0H394.316V149.917L389.247 144.5L383.165 151L376.07 144.5L370.494 151L363.399 144.5L356.303 151L348.701 144.5L341.098 151L335.523 145L328.427 151L320.825 145L313.729 151L307.14 145L301.565 151L294.47 145L287.374 151L279.771 145L272.169 151L265.58 144.5L259.498 151L253.416 144.5L247.334 151L240.239 144.5L234.663 151L227.568 144.5L220.472 151L212.87 144.5L205.267 151L199.692 145L192.596 151L184.994 145L177.898 151L171.309 145L165.734 151L158.639 145L151.543 151L143.94 145L136.338 151L129.242 144.5L123.16 151L117.078 144.5L110.996 151L103.901 144.5L98.3255 151L91.2298 144.5L84.1342 151L76.5317 144.5L68.9292 151L63.354 145L56.2584 151L48.6559 145L41.5602 151L34.9714 145L29.3963 151L22.3006 145L15.205 151L7.60248 145Z" fill="#017CF7"/>
</svg>
